# xmcd CD database file
#
# Track frame offsets:
#	150
#	12139
#	24747
#	36464
#	50159
#	59928
#	72285
#	85269
#	99354
#	110694
#	122849
#	135872
#	146423
#	156845
#	169966
#	182251
#	193850
#	206574
#	217862
#	227378
#	243961
#	257782
#	271672
#	282797
#	294821
#	306806
#	318097
#	332092
#	343015
#	354091
#
# Disc length: 4847 seconds
#
# Revision: 0
# Processed by: cddbd v1.5.2PL0 Copyright (c) Steve Scherf et al.
# Submitted via: CDex 1.70beta2
#
DISCID=b112ed1e
DTITLE=Brenda Lee - The Very Best Of
DYEAR=1900
DGENRE=Country
TTITLE0=As Usual
TTITLE1=All Alone Am I
TTITLE2=Losing You
TTITLE3=I Wonder
TTITLE4=Here Comes That Feeling
TTITLE5=I'm Sorry
TTITLE6=Emotions
TTITLE7=I Want To Be Wanted
TTITLE8=Fool Number One
TTITLE9=Break It To Me Gently
TTITLE10=Too Many Rivers
TTITLE11=Think
TTITLE12=Speak To Me Pretty
TTITLE13=Always On My Mind
TTITLE14=If You Love Me (Really Love Me)
TTITLE15=Everybody Loves Me But You
TTITLE16=The Grass Is Greener
TTITLE17=Is It True?
TTITLE18=Coming On Strong
TTITLE19=Johnny One Time
TTITLE20=Nobody Wins
TTITLE21=Tell Me What It's Like
TTITLE22=Sweet Imposible You
TTITLE23=I'll Be Seeing You
TTITLE24=Let's Jump The Broomstick
TTITLE25=Dum Dum
TTITLE26=Weep No More My Baby
TTITLE27=Sweet Nothin's
TTITLE28=It Started All Over Again
TTITLE29=Rockin' Around The Christmas Tree
EXTD=
EXTT0=
EXTT1=
EXTT2=
EXTT3=
EXTT4=
EXTT5=
EXTT6=
EXTT7=
EXTT8=
EXTT9=
EXTT10=
EXTT11=
EXTT12=
EXTT13=
EXTT14=
EXTT15=
EXTT16=
EXTT17=
EXTT18=
EXTT19=
EXTT20=
EXTT21=
EXTT22=
EXTT23=
EXTT24=
EXTT25=
EXTT26=
EXTT27=
EXTT28=
EXTT29=
PLAYORDER=
